<svg xmlns="http://www.w3.org/2000/svg" viewBox="0 0 48 48"><path d="M 11.5 6 C 8.47 6 6 8.47 6 11.5 L 6 36.5 C 6 39.53 8.47 42 11.5 42 L 24.050781 42 C 23.460781 41.07 22.980625 40.07 22.640625 39 L 11.5 39 C 11.4 39 11.299219 38.990469 11.199219 38.980469 L 11.195312 38.980469 L 23.269531 27.289062 C 23.619531 26.959063 24.209375 26.919219 24.609375 27.199219 C 25.209375 26.399219 25.909688 25.659766 26.679688 25.009766 C 25.159688 23.669766 22.659453 23.710859 21.189453 25.130859 L 9.0292969 36.894531 C 9.0290993 36.893266 9.0294926 36.891891 9.0292969 36.890625 C 9.0092969 36.760625 9 36.63 9 36.5 L 9 11.5 C 9 10.12 10.12 9 11.5 9 L 36.5 9 C 37.88 9 39 10.12 39 11.5 L 39 22.640625 C 40.07 22.980625 41.07 23.460781 42 24.050781 L 42 11.5 C 42 8.47 39.53 6 36.5 6 L 11.5 6 z M 30.5 13 C 29.125 13 27.903815 13.569633 27.128906 14.441406 C 26.353997 15.313179 26 16.416667 26 17.5 C 26 18.583333 26.353997 19.686821 27.128906 20.558594 C 27.903815 21.430367 29.125 22 30.5 22 C 31.875 22 33.096185 21.430367 33.871094 20.558594 C 34.646003 19.686821 35 18.583333 35 17.5 C 35 16.416667 34.646003 15.313179 33.871094 14.441406 C 33.096185 13.569633 31.875 13 30.5 13 z M 30.5 16 C 31.124999 16 31.403816 16.180367 31.628906 16.433594 C 31.853997 16.686821 32 17.083333 32 17.5 C 32 17.916667 31.853997 18.313179 31.628906 18.566406 C 31.403816 18.819633 31.124999 19 30.5 19 C 29.875001 19 29.596184 18.819633 29.371094 18.566406 C 29.146003 18.313179 29 17.916667 29 17.5 C 29 17.083333 29.146003 16.686821 29.371094 16.433594 C 29.596184 16.180367 29.875001 16 30.5 16 z M 35 24 C 28.925 24 24 28.925 24 35 C 24 41.075 28.925 46 35 46 C 41.075 46 46 41.075 46 35 C 46 28.925 41.075 24 35 24 z M 35 27 C 35.552 27 36 27.448 36 28 L 36 34 L 42 34 C 42.552 34 43 34.448 43 35 C 43 35.552 42.552 36 42 36 L 36 36 L 36 42 C 36 42.552 35.552 43 35 43 C 34.448 43 34 42.552 34 42 L 34 36 L 28 36 C 27.448 36 27 35.552 27 35 C 27 34.448 27.448 34 28 34 L 34 34 L 34 28 C 34 27.448 34.448 27 35 27 z"/></svg>