<svg xmlns="http://www.w3.org/2000/svg" viewBox="0 0 48 48"><path fill="#35c1f1" d="M38.999,13.511l-7.778-7.778c-0.958-0.958-2.506-0.979-3.49-0.047l-7.732,7.325v3.35h17.575	c0.787,0,1.425-0.638,1.425-1.425V13.511z"/><path fill="#50e6ff" d="M34,15.464L22.411,3.875c-1.145-1.145-2.992-1.169-4.167-0.056L12,9.734v3.225	c0,1.384,1.122,2.506,2.506,2.506H34z"/><linearGradient id="sc_oE3NpZpOc8IAdLAtkka" x1="15.322" x2="31.427" y1="4.792" y2="43.222" gradientUnits="userSpaceOnUse"><stop offset="0" stop-color="#eba84b"/><stop offset="1" stop-color="#d97218"/></linearGradient><path fill="url(#sc_oE3NpZpOc8IAdLAtkka)" d="M41,42H7c-0.55,0-1-0.45-1-1V10c0-0.552,0.448-1,1-1h34c0.552,0,1,0.448,1,1v31	C42,41.55,41.55,42,41,42z"/><rect width="10" height="2" x="28" y="37" fill="#633412"/><path fill="#633412" d="M20,13h8c0.552,0,1,0.448,1,1v0c0,0.552-0.448,1-1,1h-8c-0.552,0-1-0.448-1-1v0	C19,13.448,19.448,13,20,13z"/><polygon fill="#633412" points="38,32 36,30 34,32 35,32 35,35 37,35 37,32"/><polygon fill="#633412" points="32,32 30,30 28,32 29,32 29,35 31,35 31,32"/></svg>