<svg xmlns="http://www.w3.org/2000/svg" viewBox="0 0 48 48"><path d="M 35.539062 5 C 33.604892 5 32 6.5957986 32 8.53125 L 32 12.4375 C 32 14.372951 33.604892 15.96875 35.539062 15.96875 L 39.460938 15.96875 C 41.394219 15.96875 42.998047 14.373225 42.998047 12.4375 L 42.998047 8.53125 C 42.998047 6.5957986 41.395108 5 39.460938 5 L 35.539062 5 z M 23.703125 6.6210938 C 23.478333 6.6065478 23.25229 6.612638 23.029297 6.640625 C 22.137802 6.7525129 21.288503 7.2012205 20.701172 7.9570312 L 18.339844 10.992188 L 18.341797 10.992188 C 17.165718 12.504784 17.445108 14.728742 18.957031 15.904297 L 21.992188 18.263672 C 23.503469 19.438728 25.72725 19.16116 26.902344 17.648438 L 29.263672 14.613281 A 1.50015 1.50015 0 0 0 29.263672 14.611328 C 30.438423 13.098706 30.159796 10.876288 28.648438 9.7011719 L 25.611328 7.3398438 L 25.611328 7.3417969 C 25.044069 6.9008047 24.3775 6.6647315 23.703125 6.6210938 z M 35.539062 8 L 39.460938 8 C 39.778767 8 39.998047 8.2247014 39.998047 8.53125 L 39.998047 12.4375 C 39.998047 12.745775 39.779654 12.96875 39.460938 12.96875 L 35.539062 12.96875 C 35.221233 12.96875 35 12.744049 35 12.4375 L 35 8.53125 C 35 8.2247014 35.221233 8 35.539062 8 z M 23.400391 9.5996094 C 23.523861 9.5840099 23.65383 9.6190242 23.769531 9.7089844 L 26.806641 12.068359 C 27.039282 12.249243 27.07578 12.538107 26.894531 12.771484 L 24.535156 15.806641 A 1.50015 1.50015 0 0 0 24.533203 15.808594 C 24.353837 16.039889 24.065951 16.076844 23.833984 15.896484 L 20.796875 13.535156 C 20.564798 13.354711 20.529063 13.065387 20.708984 12.833984 L 23.068359 9.796875 A 1.50015 1.50015 0 0 0 23.070312 9.796875 C 23.159948 9.6814217 23.27692 9.6152088 23.400391 9.5996094 z M 8.5 16 C 6.5850452 16 5 17.585045 5 19.5 L 5 25.5 L 5 33.5 L 5 39.5 C 5 41.414955 6.5850452 43 8.5 43 L 14.5 43 L 22.5 43 L 28.5 43 C 30.414955 43 32 41.414955 32 39.5 L 32 35.5 C 32 33.585045 30.414955 32 28.5 32 L 24 32 L 24 27.5 C 24 25.585045 22.414955 24 20.5 24 L 16 24 L 16 19.5 C 16 17.585045 14.414955 16 12.5 16 L 8.5 16 z M 36.496094 18.013672 C 36.039269 17.976722 35.569404 18.030182 35.111328 18.183594 L 35.111328 18.181641 L 31.410156 19.419922 C 29.578953 20.033194 28.569954 22.05637 29.183594 23.888672 L 29.181641 23.888672 L 30.419922 27.587891 A 1.50015 1.50015 0 0 0 30.419922 27.589844 C 31.032922 29.421956 33.057172 30.429778 34.888672 29.816406 L 38.587891 28.578125 A 1.50015 1.50015 0 0 0 38.589844 28.578125 C 40.421047 27.964853 41.430046 25.94363 40.816406 24.111328 L 39.578125 20.410156 C 39.118171 19.036754 37.866567 18.124536 36.496094 18.013672 z M 8.5 19 L 12.5 19 C 12.795045 19 13 19.204955 13 19.5 L 13 24 L 8 24 L 8 19.5 C 8 19.204955 8.2049548 19 8.5 19 z M 36.277344 20.996094 C 36.484471 21.007651 36.660329 21.142183 36.734375 21.363281 L 37.970703 25.0625 C 38.069063 25.356198 37.931513 25.635647 37.636719 25.734375 L 33.935547 26.970703 C 33.641047 27.069333 33.364625 26.932603 33.265625 26.636719 L 32.027344 22.935547 C 31.928984 22.641849 32.068484 22.364353 32.363281 22.265625 L 36.0625 21.027344 C 36.135925 21.002754 36.208301 20.992241 36.277344 20.996094 z M 8 27 L 13 27 L 13 32 L 8 32 L 8 27 z M 16 27 L 20.5 27 C 20.795045 27 21 27.204955 21 27.5 L 21 32 L 16 32 L 16 27 z M 8 35 L 13 35 L 13 40 L 8.5 40 C 8.2049548 40 8 39.795045 8 39.5 L 8 35 z M 16 35 L 21 35 L 21 40 L 16 40 L 16 35 z M 24 35 L 28.5 35 C 28.795045 35 29 35.204955 29 35.5 L 29 39.5 C 29 39.795045 28.795045 40 28.5 40 L 24 40 L 24 35 z"/></svg>